<?xml version="1.0" encoding="utf-8"?>
<!-- Svg Vector Icons : http://www.onlinewebfonts.com/icon -->
<!DOCTYPE svg PUBLIC "-//W3C//DTD SVG 1.1//EN" "http://www.w3.org/Graphics/SVG/1.1/DTD/svg11.dtd">
<svg version="1.1" xmlns="http://www.w3.org/2000/svg" xmlns:xlink="http://www.w3.org/1999/xlink" x="0px" y="0px" viewBox="0 0 256 256" enable-background="new 0 0 256 256" xml:space="preserve">
<metadata> Svg Vector Icons : http://www.onlinewebfonts.com/icon </metadata>
<g><g><g><path fill="#000000" d="M117.5,10.7c-13.2,1.8-23.7,6.6-32.1,14.6c-7.8,7.5-12.5,16.5-15,29c-0.9,4.3-1,6.7-1.1,14.4c0,12.1,1.2,20.6,4.7,31.9c4.6,15.3,10.8,26.9,21.1,39.5l1.2,1.4l-9.5,4.1c-55.2,23.7-68.5,34.1-74.1,58.1c-1.4,6.2-2.1,13.9-2.4,28L10,245.9h66.4c36.5,0,66.4-0.1,66.4-0.1c0-0.1-1.2-1.9-2.5-4c-7.2-10.7-11.5-23.9-12.1-36.9c-0.6-12.7,2.6-25.1,9.6-37.4c4.5-7.9,9.4-14.1,18.4-23c6.7-6.7,8.8-9.2,11.8-13.7c19.1-28.8,24.5-68.3,12.6-91.9c-7-14-20.3-23.8-36.7-27.1C135.8,10,125.6,9.6,117.5,10.7z"/><path fill="#000000" d="M187,172.2v14.7h-14.7h-14.7v14.7v14.7h14.7H187v14.7v14.7h14.7h14.7v-14.7v-14.7h14.7H246v-14.7v-14.7h-14.7h-14.7v-14.7v-14.7h-14.7H187L187,172.2L187,172.2z"/></g></g></g>
</svg>