<svg xmlns="http://www.w3.org/2000/svg" xmlns:xlink="http://www.w3.org/1999/xlink" width="1080" zoomAndPan="magnify" viewBox="0 0 810 809.999993" height="1080" preserveAspectRatio="xMidYMid meet" version="1.0"><rect x="-81" width="972" fill="#ffffff" y="-80.999999" height="971.999992" fill-opacity="1"/><rect x="-81" width="972" fill="#ffffff" y="-80.999999" height="971.999992" fill-opacity="1"/><path fill="#6942ef" d="M 526.5 243 L 283.5 243 C 261.164062 243 243 261.164062 243 283.5 L 243 526.5 C 243 548.835938 261.164062 567 283.5 567 L 405 567 L 405 455.625 L 364.5 455.625 L 364.5 405 L 405 405 L 405 364.5 C 405 362.511719 405.097656 360.527344 405.292969 358.546875 C 405.488281 356.566406 405.777344 354.601562 406.167969 352.648438 C 406.554688 350.695312 407.039062 348.769531 407.617188 346.863281 C 408.195312 344.960938 408.863281 343.089844 409.625 341.253906 C 410.386719 339.414062 411.234375 337.617188 412.171875 335.863281 C 413.109375 334.109375 414.132812 332.402344 415.238281 330.75 C 416.34375 329.09375 417.527344 327.5 418.789062 325.960938 C 420.050781 324.421875 421.386719 322.949219 422.792969 321.542969 C 424.199219 320.136719 425.671875 318.800781 427.210938 317.539062 C 428.75 316.277344 430.34375 315.09375 432 313.988281 C 433.652344 312.882812 435.359375 311.859375 437.113281 310.921875 C 438.867188 309.984375 440.664062 309.136719 442.503906 308.375 C 444.339844 307.613281 446.210938 306.945312 448.113281 306.367188 C 450.019531 305.789062 451.945312 305.304688 453.898438 304.917969 C 455.851562 304.527344 457.816406 304.238281 459.796875 304.042969 C 461.777344 303.847656 463.761719 303.75 465.75 303.75 L 506.25 303.75 L 506.25 354.375 L 486 354.375 C 474.820312 354.375 465.75 353.320312 465.75 364.5 L 465.75 405 L 516.375 405 L 496.125 455.625 L 465.75 455.625 L 465.75 567 L 526.5 567 C 548.835938 567 567 548.835938 567 526.5 L 567 283.5 C 567 261.164062 548.835938 243 526.5 243 Z M 526.5 243 " fill-opacity="1" fill-rule="nonzero"/></svg>